<svg width="50" height="39" viewBox="0 0 50 39" fill="none" xmlns="http://www.w3.org/2000/svg">
<path d="M6 0L12.4815 8.38227L18.963 0L24.9815 7.78354L31 0V14H6V0Z" fill="#FACC14"/>
<path d="M8.71023 20.5455H6.30682C6.28978 20.3466 6.24432 20.1662 6.17046 20.0043C6.09943 19.8423 6 19.7031 5.87216 19.5867C5.74716 19.4673 5.59517 19.3764 5.4162 19.3139C5.23722 19.2486 5.03409 19.2159 4.80682 19.2159C4.40909 19.2159 4.07245 19.3125 3.79688 19.5057C3.52415 19.6989 3.31676 19.9759 3.17472 20.3367C3.03551 20.6974 2.96591 21.1307 2.96591 21.6364C2.96591 22.1705 3.03693 22.6179 3.17898 22.9787C3.32387 23.3367 3.53267 23.6065 3.8054 23.7884C4.07813 23.9673 4.40625 24.0568 4.78978 24.0568C5.00853 24.0568 5.20455 24.0298 5.37784 23.9759C5.55114 23.919 5.70171 23.8381 5.82955 23.733C5.95739 23.6278 6.06108 23.5014 6.14063 23.3537C6.22301 23.2031 6.27841 23.0341 6.30682 22.8466L8.71023 22.8636C8.68182 23.233 8.57813 23.6094 8.39915 23.9929C8.22017 24.3736 7.96591 24.7259 7.63637 25.0497C7.30966 25.3707 6.90483 25.6293 6.42188 25.8253C5.93892 26.0213 5.37784 26.1193 4.73864 26.1193C3.9375 26.1193 3.21875 25.9474 2.58239 25.6037C1.94887 25.2599 1.44745 24.7543 1.07813 24.0867C0.71165 23.419 0.528412 22.6023 0.528412 21.6364C0.528412 20.6648 0.715912 19.8466 1.09091 19.1818C1.46591 18.5142 1.97159 18.0099 2.60796 17.669C3.24432 17.3253 3.95455 17.1534 4.73864 17.1534C5.28978 17.1534 5.79688 17.2287 6.25995 17.3793C6.72301 17.5298 7.12926 17.75 7.4787 18.0398C7.82813 18.3267 8.10938 18.6804 8.32245 19.1009C8.53551 19.5213 8.66478 20.0028 8.71023 20.5455Z" fill="black"/>
<path d="M18.2397 21.6364C18.2397 22.608 18.0508 23.4276 17.6729 24.0952C17.2951 24.7599 16.7852 25.2642 16.1431 25.608C15.5011 25.9489 14.7852 26.1193 13.9954 26.1193C13.1999 26.1193 12.4812 25.9474 11.8391 25.6037C11.1999 25.2571 10.6914 24.7514 10.3136 24.0867C9.93857 23.419 9.75107 22.6023 9.75107 21.6364C9.75107 20.6648 9.93857 19.8466 10.3136 19.1818C10.6914 18.5142 11.1999 18.0099 11.8391 17.669C12.4812 17.3253 13.1999 17.1534 13.9954 17.1534C14.7852 17.1534 15.5011 17.3253 16.1431 17.669C16.7852 18.0099 17.2951 18.5142 17.6729 19.1818C18.0508 19.8466 18.2397 20.6648 18.2397 21.6364ZM15.8022 21.6364C15.8022 21.1136 15.7326 20.6733 15.5934 20.3153C15.457 19.9545 15.2539 19.6818 14.984 19.4972C14.717 19.3097 14.3874 19.2159 13.9954 19.2159C13.6033 19.2159 13.2724 19.3097 13.0025 19.4972C12.7354 19.6818 12.5323 19.9545 12.3931 20.3153C12.2568 20.6733 12.1886 21.1136 12.1886 21.6364C12.1886 22.1591 12.2568 22.6009 12.3931 22.9617C12.5323 23.3196 12.7354 23.5923 13.0025 23.7798C13.2724 23.9645 13.6033 24.0568 13.9954 24.0568C14.3874 24.0568 14.717 23.9645 14.984 23.7798C15.2539 23.5923 15.457 23.3196 15.5934 22.9617C15.7326 22.6009 15.8022 22.1591 15.8022 21.6364Z" fill="black"/>
<path d="M27.7905 21.6364C27.7905 22.608 27.6016 23.4276 27.2237 24.0952C26.8459 24.7599 26.3359 25.2642 25.6939 25.608C25.0518 25.9489 24.3359 26.1193 23.5462 26.1193C22.7507 26.1193 22.032 25.9474 21.3899 25.6037C20.7507 25.2571 20.2422 24.7514 19.8643 24.0867C19.4893 23.419 19.3018 22.6023 19.3018 21.6364C19.3018 20.6648 19.4893 19.8466 19.8643 19.1818C20.2422 18.5142 20.7507 18.0099 21.3899 17.669C22.032 17.3253 22.7507 17.1534 23.5462 17.1534C24.3359 17.1534 25.0518 17.3253 25.6939 17.669C26.3359 18.0099 26.8459 18.5142 27.2237 19.1818C27.6016 19.8466 27.7905 20.6648 27.7905 21.6364ZM25.353 21.6364C25.353 21.1136 25.2834 20.6733 25.1442 20.3153C25.0078 19.9545 24.8047 19.6818 24.5348 19.4972C24.2678 19.3097 23.9382 19.2159 23.5462 19.2159C23.1541 19.2159 22.8232 19.3097 22.5533 19.4972C22.2862 19.6818 22.0831 19.9545 21.9439 20.3153C21.8075 20.6733 21.7393 21.1136 21.7393 21.6364C21.7393 22.1591 21.8075 22.6009 21.9439 22.9617C22.0831 23.3196 22.2862 23.5923 22.5533 23.7798C22.8232 23.9645 23.1541 24.0568 23.5462 24.0568C23.9382 24.0568 24.2678 23.9645 24.5348 23.7798C24.8047 23.5923 25.0078 23.3196 25.1442 22.9617C25.2834 22.6009 25.353 22.1591 25.353 21.6364Z" fill="black"/>
<path d="M28.8867 26V17.2727H31.256V20.8011H31.3754L34.0004 17.2727H36.7617L33.8129 21.1591L36.8299 26H34.0004L32.0401 22.7273L31.256 23.75V26H28.8867Z" fill="black"/>
<path d="M20.5625 38V29.2727H22.9318V32.8011H23.0511L25.6761 29.2727H28.4375L25.4886 33.1591L28.5057 38H25.6761L23.7159 34.7273L22.9318 35.75V38H20.5625Z" fill="black"/>
<path d="M31.5099 29.2727V38H29.1406V29.2727H31.5099Z" fill="black"/>
<path d="M40.1839 29.2727V38H38.2067L35.0533 33.4148H35.0021V38H32.6328V29.2727H34.6442L37.7464 33.8409H37.8146V29.2727H40.1839Z" fill="black"/>
<path d="M46.9723 32.1534C46.9354 32.0028 46.8771 31.8707 46.7976 31.7571C46.718 31.6406 46.6186 31.5426 46.4993 31.4631C46.3828 31.3807 46.2464 31.3196 46.0902 31.2798C45.9368 31.2372 45.7678 31.2159 45.5831 31.2159C45.1854 31.2159 44.8459 31.3111 44.5646 31.5014C44.2862 31.6918 44.0732 31.9659 43.9254 32.3239C43.7805 32.6818 43.7081 33.1136 43.7081 33.6193C43.7081 34.1307 43.7777 34.5682 43.9169 34.9318C44.0561 35.2955 44.2635 35.5739 44.5391 35.767C44.8146 35.9602 45.157 36.0568 45.5661 36.0568C45.9268 36.0568 46.2266 36.0043 46.4652 35.8992C46.7067 35.794 46.8871 35.6449 47.0064 35.4517C47.1257 35.2585 47.1854 35.0313 47.1854 34.7699L47.5945 34.8125H45.6001V33.125H49.4695V34.3352C49.4695 35.1307 49.3004 35.8111 48.9624 36.3764C48.6271 36.9389 48.1641 37.3707 47.5732 37.6719C46.9851 37.9702 46.3104 38.1193 45.549 38.1193C44.6996 38.1193 43.9538 37.9389 43.3118 37.5781C42.6697 37.2173 42.1683 36.7031 41.8075 36.0355C41.4496 35.3679 41.2706 34.5739 41.2706 33.6534C41.2706 32.9318 41.38 32.2926 41.5987 31.7358C41.8203 31.179 42.1271 30.7088 42.5192 30.3253C42.9112 29.9389 43.3643 29.6477 43.8786 29.4517C44.3928 29.2528 44.9439 29.1534 45.532 29.1534C46.049 29.1534 46.5291 29.2273 46.9723 29.375C47.4183 29.5199 47.8118 29.7273 48.1527 29.9972C48.4964 30.2642 48.7734 30.581 48.9837 30.9474C49.1939 31.3139 49.3217 31.7159 49.3672 32.1534H46.9723Z" fill="black"/>
</svg>
