<svg width="249" height="159" viewBox="0 0 249 159" fill="none" xmlns="http://www.w3.org/2000/svg">
<rect x="1" y="1" width="247" height="157" rx="7" fill="white"/>
<rect x="1" y="1" width="247" height="157" rx="7" stroke="#DBDBDB" stroke-width="2"/>
<path d="M8 149L240.579 8M8.42148 8L241 149" stroke="#DBDBDB" stroke-width="2"/>
<rect width="50" height="24" transform="translate(100 68)" fill="white"/>
<path d="M108.857 86.4545V77.4545H110.101V78.5156H110.207C110.281 78.3793 110.388 78.2216 110.527 78.0426C110.666 77.8636 110.859 77.7074 111.107 77.5739C111.354 77.4375 111.68 77.3693 112.087 77.3693C112.615 77.3693 113.087 77.5028 113.501 77.7699C113.916 78.0369 114.241 78.4219 114.477 78.9247C114.716 79.4276 114.835 80.0327 114.835 80.7401C114.835 81.4474 114.717 82.054 114.482 82.5597C114.246 83.0625 113.922 83.4503 113.51 83.723C113.098 83.9929 112.628 84.1278 112.099 84.1278C111.702 84.1278 111.376 84.0611 111.124 83.9276C110.874 83.794 110.678 83.6378 110.536 83.4588C110.393 83.2798 110.284 83.1207 110.207 82.9815H110.131V86.4545H108.857ZM110.105 80.7273C110.105 81.1875 110.172 81.5909 110.305 81.9375C110.439 82.2841 110.632 82.5554 110.885 82.7514C111.138 82.9446 111.447 83.0412 111.814 83.0412C112.195 83.0412 112.513 82.9403 112.768 82.7386C113.024 82.5341 113.217 82.2571 113.348 81.9077C113.482 81.5582 113.548 81.1648 113.548 80.7273C113.548 80.2955 113.483 79.9077 113.352 79.5639C113.224 79.2202 113.031 78.9489 112.773 78.75C112.517 78.5511 112.197 78.4517 111.814 78.4517C111.445 78.4517 111.132 78.5469 110.876 78.7372C110.624 78.9276 110.432 79.1932 110.301 79.5341C110.17 79.875 110.105 80.2727 110.105 80.7273ZM117.537 80.1136V84H116.263V75.2727H117.52V78.5199H117.601C117.754 78.1676 117.989 77.8878 118.304 77.6804C118.619 77.473 119.031 77.3693 119.54 77.3693C119.989 77.3693 120.381 77.4616 120.716 77.6463C121.054 77.831 121.315 78.1065 121.5 78.473C121.688 78.8366 121.781 79.2912 121.781 79.8366V84H120.507V79.9901C120.507 79.5099 120.384 79.1378 120.136 78.8736C119.889 78.6065 119.545 78.473 119.105 78.473C118.804 78.473 118.534 78.5369 118.295 78.6648C118.06 78.7926 117.874 78.9801 117.737 79.2273C117.604 79.4716 117.537 79.767 117.537 80.1136ZM126.239 84.1321C125.625 84.1321 125.089 83.9915 124.632 83.7102C124.175 83.429 123.82 83.0355 123.567 82.5298C123.314 82.0241 123.188 81.4332 123.188 80.7571C123.188 80.0781 123.314 79.4844 123.567 78.9759C123.82 78.4673 124.175 78.0724 124.632 77.7912C125.089 77.5099 125.625 77.3693 126.239 77.3693C126.852 77.3693 127.388 77.5099 127.845 77.7912C128.303 78.0724 128.658 78.4673 128.911 78.9759C129.163 79.4844 129.29 80.0781 129.29 80.7571C129.29 81.4332 129.163 82.0241 128.911 82.5298C128.658 83.0355 128.303 83.429 127.845 83.7102C127.388 83.9915 126.852 84.1321 126.239 84.1321ZM126.243 83.0625C126.641 83.0625 126.97 82.9574 127.232 82.7472C127.493 82.5369 127.686 82.2571 127.811 81.9077C127.939 81.5582 128.003 81.1733 128.003 80.7528C128.003 80.3352 127.939 79.9517 127.811 79.6023C127.686 79.25 127.493 78.9673 127.232 78.7543C126.97 78.5412 126.641 78.4347 126.243 78.4347C125.842 78.4347 125.51 78.5412 125.246 78.7543C124.984 78.9673 124.79 79.25 124.662 79.6023C124.537 79.9517 124.474 80.3352 124.474 80.7528C124.474 81.1733 124.537 81.5582 124.662 81.9077C124.79 82.2571 124.984 82.5369 125.246 82.7472C125.51 82.9574 125.842 83.0625 126.243 83.0625ZM133.767 77.4545V78.4773H130.192V77.4545H133.767ZM131.151 75.8864H132.425V82.0781C132.425 82.3253 132.462 82.5114 132.536 82.6364C132.61 82.7585 132.705 82.8423 132.821 82.8878C132.941 82.9304 133.07 82.9517 133.209 82.9517C133.311 82.9517 133.401 82.9446 133.478 82.9304C133.554 82.9162 133.614 82.9048 133.657 82.8963L133.887 83.9489C133.813 83.9773 133.708 84.0057 133.571 84.0341C133.435 84.0653 133.265 84.0824 133.06 84.0852C132.725 84.0909 132.412 84.0312 132.123 83.9062C131.833 83.7812 131.598 83.5881 131.419 83.3267C131.24 83.0653 131.151 82.7372 131.151 82.3423V75.8864ZM137.864 84.1321C137.25 84.1321 136.714 83.9915 136.257 83.7102C135.8 83.429 135.445 83.0355 135.192 82.5298C134.939 82.0241 134.812 81.4332 134.812 80.7571C134.812 80.0781 134.939 79.4844 135.192 78.9759C135.445 78.4673 135.8 78.0724 136.257 77.7912C136.714 77.5099 137.25 77.3693 137.864 77.3693C138.477 77.3693 139.013 77.5099 139.47 77.7912C139.928 78.0724 140.283 78.4673 140.536 78.9759C140.788 79.4844 140.915 80.0781 140.915 80.7571C140.915 81.4332 140.788 82.0241 140.536 82.5298C140.283 83.0355 139.928 83.429 139.47 83.7102C139.013 83.9915 138.477 84.1321 137.864 84.1321ZM137.868 83.0625C138.266 83.0625 138.595 82.9574 138.857 82.7472C139.118 82.5369 139.311 82.2571 139.436 81.9077C139.564 81.5582 139.628 81.1733 139.628 80.7528C139.628 80.3352 139.564 79.9517 139.436 79.6023C139.311 79.25 139.118 78.9673 138.857 78.7543C138.595 78.5412 138.266 78.4347 137.868 78.4347C137.467 78.4347 137.135 78.5412 136.871 78.7543C136.609 78.9673 136.415 79.25 136.287 79.6023C136.162 79.9517 136.099 80.3352 136.099 80.7528C136.099 81.1733 136.162 81.5582 136.287 81.9077C136.415 82.2571 136.609 82.5369 136.871 82.7472C137.135 82.9574 137.467 83.0625 137.868 83.0625Z" fill="#949494"/>
</svg>
